<svg xmlns="http://www.w3.org/2000/svg" width="100" height="114.362" viewBox="0 0 100 114.362">
  <path id="합치기_1" data-name="합치기 1" d="M40-1179.351a11.822,11.822,0,0,1-4.2-8.919c0-.1,0-.2,0-.293H64.58c0,.1,0,.2,0,.293a11.823,11.823,0,0,1-4.2,8.919,15.365,15.365,0,0,1-10.193,3.714A15.366,15.366,0,0,1,40-1179.351Zm10.061-13.638H2.987s-5.357-.766-1.722-5.549,11.289-9.376,12.246-27.553,1.148-23.727,1.148-23.727,3.444-24.683,15.116-28.127,12.628-3.444,12.628-3.444-.758-7.774,7.539-8.6V-1290l.058.005.058-.005v.011c8.3.826,7.539,8.6,7.539,8.6s.957,0,12.629,3.444,15.116,28.127,15.116,28.127.191,5.549,1.148,23.727,8.61,22.77,12.246,27.553-1.722,5.549-1.722,5.549Z" transform="translate(0 1289.999)" fill="#339AF0"/>
</svg>
