<svg xmlns="http://www.w3.org/2000/svg" width="143.704" height="143.921" viewBox="0 0 143.704 143.921">
  <path id="빼기_24" data-name="빼기 24" d="M-1621.3,9350.921h-97.455a93.408,93.408,0,0,1,11.62-33.584c5.664-9.47,12.858-16.663,20.8-20.8a32.6,32.6,0,0,1-11.615-11.653,32.565,32.565,0,0,1-4.424-16.407,32.454,32.454,0,0,1,32.346-32.489,32.451,32.451,0,0,1,32.339,32.489,32.587,32.587,0,0,1-4.419,16.407,32.588,32.588,0,0,1-11.615,11.653l.025.012c.16.084.321.17.494.264l-.07.042a42.357,42.357,0,0,1,3.69,2.159,50.669,50.669,0,0,1,8.947,7.843,65.726,65.726,0,0,1,7.718,10.481,93.451,93.451,0,0,1,11.617,33.579h0Zm-100.676-26.518H-1765a95.042,95.042,0,0,1,11.923-34.3c5.811-9.674,13.193-17.021,21.348-21.248a33.386,33.386,0,0,1-11.918-11.906,33.143,33.143,0,0,1-4.539-16.758A33.226,33.226,0,0,1-1715,9207a32.946,32.946,0,0,1,18.931,5.944,33.46,33.46,0,0,1,7.111,6.7,33.164,33.164,0,0,1,4.891,8.529,42.362,42.362,0,0,0-11.432,6.146,42.907,42.907,0,0,0-9.008,9.222,42.626,42.626,0,0,0-5.9,11.613,42.707,42.707,0,0,0-2.119,13.324,42.809,42.809,0,0,0,5.819,21.571,43.015,43.015,0,0,0,3.994,5.711,72.309,72.309,0,0,0-13.128,16.321,91.692,91.692,0,0,0-6.129,12.323Z" transform="translate(1765.001 -9207.001)" fill="#339AF0"/>
</svg>
