<svg xmlns="http://www.w3.org/2000/svg" width="100.002" height="100.002" viewBox="0 0 100.002 100.002">
  <path id="합치기_5" data-name="합치기 5" d="M40-1190v-15H85v-45h15v60Zm.464-27.427a24.423,24.423,0,0,1-7.788-5.25,24.415,24.415,0,0,1-5.251-7.788A24.358,24.358,0,0,1,25.5-1240a24.354,24.354,0,0,1,1.925-9.536,24.421,24.421,0,0,1,5.251-7.787,24.423,24.423,0,0,1,7.788-5.25A24.345,24.345,0,0,1,50-1264.5a24.337,24.337,0,0,1,9.536,1.926,24.433,24.433,0,0,1,7.788,5.25,24.418,24.418,0,0,1,5.25,7.787A24.341,24.341,0,0,1,74.5-1240a24.343,24.343,0,0,1-1.926,9.537,24.422,24.422,0,0,1-5.25,7.788,24.433,24.433,0,0,1-7.788,5.25A24.354,24.354,0,0,1,50-1215.5,24.358,24.358,0,0,1,40.464-1217.425Zm.952-31.161A12.062,12.062,0,0,0,37.86-1240a12.06,12.06,0,0,0,3.556,8.585A12.06,12.06,0,0,0,50-1227.859a12.062,12.062,0,0,0,8.585-3.556A12.06,12.06,0,0,0,62.142-1240a12.062,12.062,0,0,0-3.556-8.585A12.063,12.063,0,0,0,50-1252.142,12.06,12.06,0,0,0,41.416-1248.585ZM0-1230v-60H60v15H15v45Z" transform="translate(0 1290)" fill="#339AF0"/>
</svg>
