<svg xmlns="http://www.w3.org/2000/svg" width="100" height="117.404" viewBox="0 0 100 117.404">
  <path id="빼기_2" data-name="빼기 2" d="M118.4-1171.595H18.4A95.141,95.141,0,0,1,30.323-1205.9c5.814-9.673,13.2-17.021,21.349-21.247a33.379,33.379,0,0,1-11.919-11.9,33.151,33.151,0,0,1-4.539-16.759A33.226,33.226,0,0,1,68.4-1289a33.224,33.224,0,0,1,33.185,33.189,33.16,33.16,0,0,1-4.537,16.759,33.367,33.367,0,0,1-11.917,11.9c8.153,4.228,15.534,11.578,21.345,21.247a95.15,95.15,0,0,1,11.921,34.3Z" transform="translate(-18.401 1288.999)" fill="#339AF0"/>
</svg>
